<?xml version="1.0" encoding="utf-8"?>
<!-- Generator: Adobe Illustrator 23.0.0, SVG Export Plug-In . SVG Version: 6.00 Build 0)  -->
<svg version="1.1" id="Capa_1" xmlns="http://www.w3.org/2000/svg" xmlns:xlink="http://www.w3.org/1999/xlink" x="0px" y="0px"
	 viewBox="0 0 250 250" style="enable-background:new 0 0 250 250;" xml:space="preserve">
<style type="text/css">
	.st0{fill:#FFFFFF;}
	.st1{font-family:'CenturyGothic';}
	.st2{font-size:28.3612px;}
	.st3{font-size:12.6064px;}
</style>
<g>
	<g>
		<path class="st0" d="M117.2,83.4l5.1-4.9l-4.8-18.9l-0.5,1.7c-0.9,2.8-2.1,5.4-3.6,7.7l-12.2-49.1c6.7-1.6,13.5-2.3,20.4-2.3
			c8.1,0,16.2,1.1,23.9,3.2l-22,87.1L117.2,83.4z"/>
		<path d="M121.5,18c7.9,0,15.8,1,23.3,3.1l-21.4,84.7l-5.6-22.3l1.7-1.6l3-2.9l0.4-0.4l-0.1-0.6l-4.3-16.9l-0.9-3.4l-1.1,3.3
			c-0.8,2.4-1.8,4.6-3,6.6l-11.8-47.5C108.2,18.7,114.8,18,121.5,18 M121.5,17c-7.3,0-14.3,0.9-21,2.5l12.6,50.7
			c1.8-2.6,3.3-5.5,4.3-8.8l4.3,16.9l-3,2.9l-2.1,2l6.7,26.7L146,20.4C138.3,18.2,130,17,121.5,17L121.5,17z"/>
	</g>
	<g>
		<path class="st0" d="M121.5,159.5c-44.1,0-80-31.9-80-71c0-12.5,3.7-24.7,10.7-35.4c-0.1,0.9-0.1,1.7-0.1,2.4
			c0,10.2,3.9,19,11.6,26.2c7.7,7.2,17,10.8,27.8,10.8c3.8,0,8.5-0.8,14-2.4l17.5,69.4C122.5,159.5,122,159.5,121.5,159.5z
			 M157.7,25.2c27,12.2,43.8,36.4,43.8,63.3c0,38.4-34.5,69.8-77.4,71L157.7,25.2z"/>
		<path d="M158.1,25.9c12.6,5.8,23.2,14.4,30.7,25.1c8,11.2,12.2,24.2,12.2,37.5c0,37.9-33.9,68.9-76.3,70.4L158.1,25.9 M51.6,55
			c0,0.2,0,0.4,0,0.6c0,10.3,4,19.3,11.8,26.6C71.1,89.4,80.6,93,91.4,93c3.7,0,8.3-0.8,13.7-2.3l17.3,68.3c-0.3,0-0.6,0-0.9,0
			C77.7,159,42,127.4,42,88.5C42,76.7,45.3,65.2,51.6,55 M157.4,24.5l-33.8,135l-17.7-70c-5.7,1.7-10.5,2.6-14.4,2.6
			C80.8,92,71.7,88.5,64,81.4c-7.6-7.1-11.5-15.7-11.5-25.8c0-1.5,0.1-2.9,0.3-4.4C45.3,62,41,74.8,41,88.5C41,128,77,160,121.5,160
			S202,128,202,88.5C202,60.5,183.8,36.2,157.4,24.5L157.4,24.5z"/>
	</g>
	<g>
		<path class="st0" d="M91.4,80.2c-7.1,0-13.3-2.4-18.5-7.3c-5.2-4.8-7.8-10.7-7.8-17.4c0-6.8,2.5-12.6,7.5-17.4
			c4.9-4.7,10.9-7.2,17.8-7.3l12,47.2C99.2,79.5,95.5,80.2,91.4,80.2z"/>
		<path d="M90,31.4l11.8,46.4c-3,1.3-6.6,1.9-10.5,1.9c-6.9,0-13-2.4-18.1-7.1c-5.1-4.7-7.6-10.4-7.6-17.1c0-6.6,2.5-12.4,7.4-17.1
			C77.7,33.9,83.4,31.5,90,31.4 M90.8,30.3c-7.2,0-13.4,2.5-18.5,7.4c-5.1,4.9-7.7,10.9-7.7,17.8c0,6.9,2.6,12.9,8,17.8
			c5.3,4.9,11.6,7.4,18.8,7.4c4.4,0,8.3-0.8,11.6-2.3L90.8,30.3L90.8,30.3z"/>
	</g>
</g>
<text transform="matrix(0.5584 0 0 1 31.0005 187.3613)" class="st0 st1 st2">OSCAR VEGA VENEGAS</text>
<rect x="36" y="191" class="st0" width="175" height="1"/>
<text transform="matrix(0.8035 0 0 1 85 207.1348)" class="st0 st1 st3">D E V E L O P E R</text>
</svg>
